<svg width="31" height="30" fill="none" xmlns="http://www.w3.org/2000/svg"><path d="m17.583 9.263 3.075-1.513c.375-.187.475-.675.187-.975a35.684 35.684 0 0 0-3.137-3.025.618.618 0 0 0-1.025.475V8.7c0 .463.487.763.9.563zM16.683 24.675v2.063c0 .375.337.687.712.625 3.413-.563 6.263-2.85 7.613-5.925.237-.525-.338-1.05-.863-.8l-7.112 3.487a.607.607 0 0 0-.35.55zM14.808 4.2a.625.625 0 0 0-1.025-.487C10.833 6.188 5.595 11.4 5.62 17.375c0 5.025 3.675 9.188 8.475 9.988.375.062.713-.25.713-.625V4.2zM17.545 15.588l6.613-2.775c.337-.15.5-.538.337-.863-.462-.912-1-1.8-1.587-2.625a.623.623 0 0 0-.775-.2l-5.113 2.488a.626.626 0 0 0-.35.562v2.837c.013.438.463.75.875.575zM25.533 17.887a.56.56 0 0 0 .325-.5c0-.8-.1-1.587-.275-2.362a.623.623 0 0 0-.85-.425l-7.675 3.275a.632.632 0 0 0-.375.575v2.75c0 .463.487.762.9.563l7.375-3.588.575-.288z" fill="#1AAB7B"/></svg>