<svg width="31" height="30" fill="none" xmlns="http://www.w3.org/2000/svg"><path d="m27.045 16.6-1.15-1.125-9.687 9.675 1.162 1.163c.975.975 1.988 1.462 2.988 1.462s2.012-.487 2.987-1.462l3.7-3.7c1.988-2 1.988-4.013 0-6.013zM14.108 3.663c-1.963-1.963-4.025-1.963-5.988 0l-3.712 3.7c-1.95 1.962-1.95 4.024 0 5.987l1.15 1.15 9.687-9.687-1.137-1.15zM28.008 4.925c-1.638 4.087-5.375 9.425-8.938 12.912a7.453 7.453 0 0 0-6.337-6.2c3.5-3.575 8.875-7.362 12.975-9.012a1.778 1.778 0 0 1 1.9.387c.475.475.7 1.188.4 1.913z" fill="#1AAB7B"/><path d="M17.97 18.863c-.25.212-.5.425-.75.625l-2.237 1.787c0-.037-.013-.087-.013-.137-.175-1.338-.8-2.576-1.812-3.588a6.286 6.286 0 0 0-3.7-1.825c-.038 0-.088-.012-.125-.012l1.812-2.288c.175-.225.363-.438.563-.663l.85.113c2.687.375 4.85 2.488 5.275 5.163l.137.825z" fill="#1AAB7B"/><path d="M13.783 22.025a5.123 5.123 0 0 1-1.525 3.675c-.763.775-1.788 1.3-3.038 1.45l-3.062.338c-1.675.187-3.113-1.25-2.925-2.938l.337-3.075c.3-2.738 2.588-4.488 5.013-4.538.237-.012.5 0 .75.025 1.062.138 2.087.625 2.95 1.476.837.837 1.312 1.825 1.45 2.862.025.25.05.488.05.725z" fill="#1AAB7B"/></svg>