<svg width="24" height="24" fill="none" xmlns="http://www.w3.org/2000/svg"><path d="M11.987 5.836a6.147 6.147 0 0 0-5.68 3.803 6.164 6.164 0 0 0 1.335 6.71 6.15 6.15 0 0 0 10.501-4.351 6.162 6.162 0 0 0-3.8-5.694 6.146 6.146 0 0 0-2.356-.468zm0 10.155a3.993 3.993 0 0 1-3.691-2.47 4.004 4.004 0 0 1 2.912-5.453 3.992 3.992 0 0 1 4.102 1.7 4.004 4.004 0 0 1-.497 5.051 3.994 3.994 0 0 1-2.826 1.172z" fill="#fff"/><path d="M16.93.075c-2.205-.1-7.668-.1-9.876 0a7.16 7.16 0 0 0-5.03 1.941C-.283 4.324.011 7.434.011 11.999c0 4.668-.26 7.706 2.011 9.979 2.315 2.311 5.47 2.008 9.965 2.008 4.619 0 6.213 0 7.847-.63 2.22-.863 3.895-2.85 4.06-6.419.1-2.209.1-7.677 0-9.887-.2-4.213-2.456-6.768-6.968-6.976l.004.001zm3.492 20.371c-1.512 1.513-3.608 1.378-8.46 1.378-4.994 0-6.992.074-8.458-1.393-1.684-1.677-1.379-4.37-1.379-8.453 0-5.525-.566-9.5 4.973-9.788 1.273-.045 1.647-.06 4.85-.06l.046.03c5.323 0 9.5-.558 9.75 4.986.058 1.265.07 1.645.07 4.847 0 4.942.093 6.959-1.392 8.453z" fill="#fff"/><path d="M18.387 7.032a1.438 1.438 0 1 0-.002-2.876 1.438 1.438 0 0 0 .002 2.876z" fill="#fff"/></svg>