<svg width="24" height="23" fill="none" xmlns="http://www.w3.org/2000/svg"><path d="M2.767.01A2.676 2.676 0 0 0 .101 1.58a2.683 2.683 0 0 0 1.52 3.618c.345.127.712.181 1.08.16h.032a2.678 2.678 0 0 0 2.684-1.58A2.685 2.685 0 0 0 3.857.153 2.678 2.678 0 0 0 2.767.01zM.164 7.472h5.14v15.477H.164V7.472zM17.922 7.107c-2.772 0-4.63 2.608-4.63 2.608V7.47h-5.14v15.478h5.14v-8.643a3.53 3.53 0 0 1 .168-1.256 2.815 2.815 0 0 1 2.637-1.88c1.86 0 2.604 1.418 2.604 3.5v8.28h5.138v-8.876c-.004-4.754-2.54-6.966-5.917-6.966z" fill="#fff"/></svg>