<svg width="31" height="30" fill="none" xmlns="http://www.w3.org/2000/svg"><path d="M26.433 11.8h-1.375c-.188 0-.375.037-.55.087L18.27 5.65a1.95 1.95 0 0 0-.162-2.588l-.975-.975c-.738-.737-2.038-.737-2.788 0l-.975.975c-.7.7-.75 1.813-.15 2.588l-6.237 6.237a2.023 2.023 0 0 0-.55-.087H5.058a1.98 1.98 0 0 0-1.975 1.975v1.375a1.98 1.98 0 0 0 1.975 1.975h1.375a1.98 1.98 0 0 0 1.975-1.975v-1.375c0-.188-.038-.375-.088-.55l6.238-6.238c.337.263.762.4 1.187.4.425 0 .85-.15 1.2-.412l6.238 6.238c-.05.175-.088.362-.088.55v1.374a1.98 1.98 0 0 0 1.975 1.976h1.375a1.98 1.98 0 0 0 1.975-1.976v-1.375a1.996 1.996 0 0 0-1.987-1.962z" fill="#1AAB7B"/><path d="m20.433 20.688-2.05 1.812h-5.325l-2.05-1.813c-1.188-.975-1.188-1.725-.288-2.875l3.613-4.575c.25-.312.537-.524.862-.637.338-.112.7-.112 1.05 0 .313.113.6.325.863.638l3.612 4.575c.9 1.137.863 1.85-.287 2.875zM17.358 27.5H14.12c-1.15 0-2.012-.938-1.787-1.938l.387-1.737a.75.75 0 0 1 .738-.587h4.562c.35 0 .65.237.738.587l.387 1.738c.25 1.062-.562 1.937-1.787 1.937z" fill="#1AAB7B"/></svg>