<svg width="81" height="28" fill="none" xmlns="http://www.w3.org/2000/svg"><path d="M0 27.392V.303h9.343a9.566 9.566 0 0 1 3.413.604 8.7 8.7 0 0 1 2.806 1.7 7.995 7.995 0 0 1 2.596 6.016 7.992 7.992 0 0 1-2.596 5.978 8.684 8.684 0 0 1-2.806 1.7 9.566 9.566 0 0 1-3.41.606h-5.09v10.48L0 27.391zm9.456-14.566a4.682 4.682 0 0 0 1.884-.356c.526-.222 1-.55 1.394-.965.371-.395.665-.856.866-1.36.196-.48.298-.994.301-1.513a4.204 4.204 0 0 0-1.167-2.896 4.477 4.477 0 0 0-3.273-1.342H4.257v8.436l5.199-.004zM21.473 8.854v18.538h4.183V8.854h-4.183z" fill="#191919"/><path d="M26.361 2.835a2.774 2.774 0 0 1-.81 2.005 2.66 2.66 0 0 1-1.978.832V0a2.655 2.655 0 0 1 1.979.832 2.77 2.77 0 0 1 .81 2.002zM23.57 0v5.675a2.69 2.69 0 0 1-2.01-.832 2.763 2.763 0 0 1-.813-2.008A2.775 2.775 0 0 1 21.56.833 2.709 2.709 0 0 1 23.57 0z" fill="#35AF39"/><path d="M34.849 17.97 28.48 8.855h4.86l3.993 5.864h.113l3.725-5.864h5.048l-6.442 9.117 6.555 9.42h-4.967l-3.993-6.052h-.113l-3.96 6.053h-4.932l6.48-9.421zM65.29 22.965a10.063 10.063 0 0 1-3.318 3.595c-1.43.96-3.188 1.44-5.273 1.44a9.745 9.745 0 0 1-3.823-.738 9.053 9.053 0 0 1-3.033-2.062 9.458 9.458 0 0 1-1.997-3.121 10.588 10.588 0 0 1-.716-3.954 10.667 10.667 0 0 1 .677-3.802 9.69 9.69 0 0 1 1.902-3.141 9.063 9.063 0 0 1 3.089-2.194 9.029 9.029 0 0 1 3.711-.737c1.43 0 2.705.24 3.825.718a8.111 8.111 0 0 1 2.844 2.006 8.796 8.796 0 0 1 1.79 3.102c.425 1.279.635 2.62.621 3.968v.34a1.713 1.713 0 0 0-.038.34 1.26 1.26 0 0 0-.037.302H51.312c.053.806.271 1.591.64 2.308a5.396 5.396 0 0 0 1.3 1.627 5.074 5.074 0 0 0 1.714.945c.596.198 1.219.3 1.846.303 1.204 0 2.196-.29 2.977-.87a7.199 7.199 0 0 0 1.919-2.153l3.581 1.778zm-3.883-7.15a5.323 5.323 0 0 0-.357-1.267c-.2-.483-.494-.92-.866-1.285a5.005 5.005 0 0 0-1.507-1.002c-.615-.277-1.362-.416-2.241-.416-1.204 0-2.24.36-3.109 1.078-.868.719-1.452 1.683-1.752 2.892h9.832zM68.755 8.854h3.95v2.8h.226c.238-.492.55-.944.928-1.338a6.06 6.06 0 0 1 1.32-1.068 8.369 8.369 0 0 1 1.545-.718 4.767 4.767 0 0 1 1.563-.282 6.03 6.03 0 0 1 1.545.172c.407.107.8.265 1.168.471l-1.206 3.821a3.99 3.99 0 0 0-.923-.283 6.863 6.863 0 0 0-1.224-.095 4.148 4.148 0 0 0-1.866.42 4.83 4.83 0 0 0-1.487 1.14 5.232 5.232 0 0 0-.998 1.71 6.085 6.085 0 0 0-.358 2.091v9.697h-4.177l-.006-18.538z" fill="#191919"/></svg>