<svg width="26" height="26" fill="none" xmlns="http://www.w3.org/2000/svg"><path d="M17.983.5H7.508C2.958.5.245 3.212.245 7.763v10.462c0 4.563 2.713 7.275 7.263 7.275H17.97c4.55 0 7.263-2.712 7.263-7.262V7.761c.012-4.55-2.7-7.262-7.25-7.262zm-7.85 17.738c0 .8-.65 1.45-1.463 1.45-.8 0-1.45-.65-1.45-1.45v-4.075c0-.8.65-1.45 1.45-1.45.813 0 1.463.65 1.463 1.45v4.075zm8.137 0c0 .8-.65 1.45-1.45 1.45-.812 0-1.462-.65-1.462-1.45V7.761c0-.8.65-1.45 1.462-1.45.8 0 1.45.65 1.45 1.45v10.476z" fill="#1AAB7B"/></svg>