<svg width="24" height="20" fill="none" xmlns="http://www.w3.org/2000/svg"><path d="M8.944 19.642a20.557 20.557 0 0 1-3.178-.252 14.902 14.902 0 0 1-4.346-1.583L0 17.03l1.537-.506c1.682-.553 2.705-.9 3.97-1.434a5.281 5.281 0 0 1-2.71-3.149l-.358-1.087.294.045a5.343 5.343 0 0 1-.668-.825 5.067 5.067 0 0 1-.866-3.01l.067-.949.567.22a5.315 5.315 0 0 1-.514-1.443 5.495 5.495 0 0 1 .584-3.7l.494-.904.662.8a12.166 12.166 0 0 0 7.884 4.443 4.724 4.724 0 0 1 .286-2.508A4.699 4.699 0 0 1 13.14.83a5.723 5.723 0 0 1 3.325-.818 5.306 5.306 0 0 1 3.263 1.347c.407-.11.808-.243 1.2-.4.26-.1.559-.21.93-.339l1.365-.47-.893 2.551c.059 0 .12-.009.183-.012l1.463-.064-.864 1.183c-.05.068-.062.087-.08.114-.07.105-.157.236-1.343 1.822A2.239 2.239 0 0 0 21.27 7.2a13.79 13.79 0 0 1-.751 5.542 9.808 9.808 0 0 1-2.63 3.9 11.612 11.612 0 0 1-5.502 2.658 16.932 16.932 0 0 1-3.443.342z" fill="#fff"/></svg>